<svg width="56" height="56" viewBox="0 0 56 56" fill="none" xmlns="http://www.w3.org/2000/svg">
<path d="M28 0C12.5361 0 0 12.5361 0 28C0 43.4639 12.5361 56 28 56C43.4639 56 56 43.4639 56 28C55.9825 12.5433 43.4567 0.0175 28 0ZM53.1216 35.1811L51.3679 34.6108L50.7901 36.3841L52.5513 36.9563C51.8229 38.9432 50.8557 40.8344 49.6711 42.588L48.1777 41.5053L47.0801 43.0155L48.5623 44.0925C47.2579 45.7574 45.7582 47.2592 44.0953 48.566L43.0183 47.0839L41.5081 48.1815L42.5908 49.6748C40.8373 50.8582 38.9465 51.824 36.96 52.5513L36.3879 50.7901L34.6145 51.3679L35.1848 53.1216C33.1491 53.7045 31.0497 54.0364 28.9333 54.11V52.2667H27.0667V54.11C24.9516 54.0361 22.8535 53.7042 20.8189 53.1216L21.3892 51.3679L19.6159 50.7901L19.04 52.5513C17.053 51.8229 15.1619 50.8557 13.4083 49.6711L14.4909 48.1777L12.9808 47.0801L11.9037 48.5623C10.2397 47.2566 8.73868 45.7556 7.43307 44.0916L8.9152 43.0145L7.8176 41.5044L6.32427 42.5871C5.14313 40.8344 4.17912 38.945 3.45333 36.96L5.21453 36.3879L4.6368 34.6145L2.88307 35.1848C2.29857 33.1492 1.96513 31.0498 1.89 28.9333H3.73333V27.0667H1.89C1.96385 24.9516 2.29577 22.8535 2.8784 20.8189L4.63213 21.3892L5.20987 19.6159L3.45333 19.04C4.1818 17.053 5.14897 15.1619 6.3336 13.4083L7.82693 14.4909L8.92453 12.9808L7.434 11.9047C8.73962 10.2407 10.2407 8.73962 11.9047 7.434L12.9817 8.91613L14.4919 7.81853L13.4092 6.3252C15.1629 5.14348 17.0537 4.17912 19.04 3.45333L19.6121 5.21453L21.3855 4.6368L20.8152 2.88307C22.8508 2.29857 24.9502 1.96513 27.0667 1.89V3.73333H28.9333V1.89C31.0484 1.96385 33.1465 2.29577 35.1811 2.8784L34.6108 4.63213L36.3841 5.20987L36.96 3.45333C38.9469 4.1818 40.8381 5.14897 42.5917 6.3336L41.5091 7.82693L43.0192 8.92453L44.0963 7.4424C45.7603 8.74802 47.2613 10.2491 48.5669 11.9131L47.0848 12.9901L48.1824 14.5003L49.6757 13.4176C50.8582 15.1685 51.8237 17.0564 52.5513 19.04L50.7901 19.6121L51.3679 21.3855L53.1216 20.8152C53.7045 22.8509 54.0364 24.9503 54.11 27.0667H52.2667V28.9333H54.11C54.0361 31.0484 53.7042 33.1465 53.1216 35.1811Z" fill="#DC2E32"/>
<path d="M28.0001 7.46667C16.6599 7.46667 7.4668 16.6598 7.4668 28C7.4668 39.3402 16.6599 48.5333 28.0001 48.5333C39.3404 48.5333 48.5335 39.3402 48.5335 28C48.5206 16.6651 39.335 7.47951 28.0001 7.46667ZM28.0001 46.6667C17.6908 46.6667 9.33346 38.3094 9.33346 28C9.33346 17.6906 17.6908 9.33334 28.0001 9.33334C38.3095 9.33334 46.6668 17.6906 46.6668 28C46.655 38.3044 38.3046 46.6549 28.0001 46.6667Z" fill="#DC2E32"/>
<path d="M27.9995 12.1333C19.2365 12.1333 12.1328 19.237 12.1328 28C12.1328 36.763 19.2365 43.8667 27.9995 43.8667C36.7624 43.8667 43.8661 36.763 43.8661 28C43.8563 19.2411 36.7583 12.1431 27.9995 12.1333ZM40.0012 20.8292C41.0863 22.6305 41.7479 24.6548 41.936 26.7493L36.0905 26.2771C35.5769 26.2339 35.1955 25.7824 35.2388 25.2688C35.2593 25.0253 35.3744 24.7996 35.5595 24.64L40.0012 20.8292ZM31.1159 14.3621L28.8609 19.7755C28.6626 20.2512 28.1161 20.4762 27.6404 20.2778C27.4132 20.1831 27.2327 20.0026 27.138 19.7755L24.8831 14.3621C26.9327 13.8792 29.0663 13.8792 31.1159 14.3621ZM15.9977 20.829L20.4395 24.64C20.8309 24.9754 20.8762 25.5647 20.5407 25.956C20.3806 26.1429 20.1529 26.259 19.9075 26.2789L14.062 26.7512C14.2501 24.6559 14.912 22.6308 15.9977 20.829ZM23.8573 35.1624L22.5021 40.8725C20.5712 40.039 18.8519 38.783 17.4705 37.1971H17.4677L22.4629 34.1497C22.9029 33.8811 23.4772 34.0199 23.7459 34.4598C23.8744 34.6702 23.9144 34.9227 23.8573 35.1624ZM33.4968 40.8725H33.494L32.136 35.1624C32.0167 34.661 32.3264 34.1577 32.8278 34.0383C33.0676 33.9813 33.3201 34.0213 33.5304 34.1497L38.5256 37.1971C37.1451 38.7827 35.4267 40.0386 33.4968 40.8725ZM34.5048 32.5556C33.1847 31.7501 31.4617 32.1672 30.6562 33.4873C30.2713 34.1181 30.1513 34.8756 30.3225 35.5945L31.7225 41.482C29.2879 42.1727 26.7091 42.1727 24.2745 41.482H24.2727L25.6727 35.5945C26.0304 34.0901 25.1008 32.5805 23.5962 32.2228C22.8777 32.052 22.1209 32.1719 21.4904 32.5565L16.3253 35.7093C14.9307 33.6001 14.1376 31.1507 14.0312 28.6244L20.0587 28.1372C21.5998 28.0108 22.7468 26.6589 22.6204 25.1177C22.5601 24.3829 22.2125 23.7014 21.6528 23.2213L17.0608 19.2827C18.6387 17.3084 20.7201 15.7965 23.0855 14.9063L25.4113 20.4904C26.0058 21.9179 27.6449 22.5934 29.0726 21.9989C29.7548 21.7148 30.297 21.1725 30.5811 20.4904L32.9079 14.9063C35.2731 15.7968 37.3544 17.3087 38.9326 19.2827L34.3461 23.2213C33.1725 24.2283 33.0374 25.996 34.0443 27.1696C34.525 27.7298 35.2074 28.0775 35.9431 28.1372L41.9706 28.6244C41.8642 31.1507 41.0711 33.6001 39.6764 35.7093L34.5048 32.5556Z" fill="#DC2E32"/>
<path d="M28.0009 24.2667C25.9391 24.2667 24.2676 25.9381 24.2676 28C24.2676 30.0618 25.9391 31.7333 28.0009 31.7333C30.0628 31.7333 31.7342 30.0618 31.7342 28C31.7342 25.9381 30.0628 24.2667 28.0009 24.2667ZM28.0009 29.8667C26.9699 29.8667 26.1342 29.031 26.1342 28C26.1342 26.969 26.9699 26.1333 28.0009 26.1333C29.0319 26.1333 29.8676 26.969 29.8676 28C29.8676 29.031 29.0319 29.8667 28.0009 29.8667Z" fill="#DC2E32"/>
</svg>
