<svg width="60" height="60" viewBox="0 0 60 60" fill="none" xmlns="http://www.w3.org/2000/svg">
<path d="M59.0003 16H56.9503C56.7293 12.892 55.4953 10.066 53.5693 7.846L54.7083 6.707C55.0993 6.316 55.0993 5.684 54.7083 5.293C54.3173 4.902 53.6853 4.902 53.2943 5.293L52.1553 6.432C49.9353 4.506 47.1083 3.272 44.0013 3.051V1C44.0013 0.447 43.5533 0 43.0013 0C42.4493 0 42.0013 0.447 42.0013 1V3.051C38.8933 3.272 36.0673 4.506 33.8473 6.432L32.7083 5.293C32.3173 4.902 31.6853 4.902 31.2943 5.293C30.9033 5.684 30.9033 6.316 31.2943 6.707L32.4333 7.846C30.5073 10.066 29.2733 12.893 29.0523 16H27.0003C26.4483 16 26.0003 16.447 26.0003 17C26.0003 17.553 26.4483 18 27.0003 18H29.0513C29.2723 21.108 30.5063 23.934 32.4323 26.154L31.2933 27.293C31.1813 27.405 31.1103 27.539 31.0633 27.679C29.9033 26.627 28.6113 25.723 27.2073 24.999L27.9153 23.406C28.1393 22.901 27.9123 22.31 27.4073 22.086C26.9013 21.863 26.3123 22.09 26.0873 22.594L25.3783 24.189C23.3923 23.433 21.2483 23 19.0003 23C17.0523 23 15.1803 23.321 13.4213 23.896L12.9323 22.638C12.7323 22.123 12.1513 21.867 11.6383 22.069C11.1233 22.268 10.8683 22.848 11.0683 23.363L11.5603 24.63C7.8703 26.314 4.8503 29.201 2.9993 32.795L1.4063 32.087C0.9013 31.864 0.3113 32.091 0.0863004 32.595C-0.1377 33.1 0.0893004 33.691 0.5943 33.915L2.1893 34.623C1.4333 36.609 1.0003 38.753 1.0003 41C1.0003 42.948 1.3213 44.821 1.8963 46.579L0.6383 47.068C0.1233 47.268 -0.1317 47.847 0.0683004 48.362C0.2223 48.758 0.6003 49 1.0013 49C1.1213 49 1.2443 48.979 1.3633 48.932L2.6303 48.44C4.3143 52.13 7.2013 55.151 10.7953 57.002L10.0873 58.595C9.8633 59.1 10.0903 59.691 10.5953 59.915C10.7263 59.973 10.8643 60 11.0003 60C11.3833 60 11.7493 59.778 11.9153 59.406L12.6243 57.811C14.6093 58.568 16.7533 59 19.0003 59C20.9483 59 22.8203 58.679 24.5793 58.104L25.0683 59.362C25.2223 59.758 25.6003 60 26.0003 60C26.1213 60 26.2433 59.979 26.3623 59.932C26.8773 59.733 27.1323 59.153 26.9323 58.638L26.4403 57.371C30.1303 55.687 33.1503 52.8 35.0013 49.206L36.5943 49.914C36.7263 49.973 36.8643 50 37.0003 50C37.3833 50 37.7493 49.778 37.9153 49.406C38.1393 48.901 37.9123 48.31 37.4073 48.086L35.8123 47.378C36.5683 45.392 37.0003 43.248 37.0003 41C37.0003 39.052 36.6793 37.179 36.1043 35.421L37.3623 34.932C37.8773 34.732 38.1323 34.153 37.9323 33.638C37.7333 33.123 37.1573 32.866 36.6383 33.069L35.3713 33.561C34.5953 31.86 33.5623 30.306 32.3213 28.938C32.4613 28.89 32.5953 28.819 32.7073 28.708L33.8463 27.569C36.0663 29.495 38.8933 30.729 42.0003 30.95V33C42.0003 33.553 42.4483 34 43.0003 34C43.5523 34 44.0003 33.553 44.0003 33V30.949C47.1083 30.728 49.9343 29.494 52.1543 27.568L53.3523 28.766C53.5473 28.961 53.8033 29.059 54.0593 29.059C54.3153 29.059 54.5713 28.961 54.7663 28.766C55.1573 28.375 55.1573 27.743 54.7663 27.352L53.5683 26.154C55.4943 23.934 56.7283 21.107 56.9493 18H59.0003C59.5523 18 60.0003 17.553 60.0003 17C60.0003 16.447 59.5533 16 59.0003 16ZM19.0003 25C20.9593 25 22.8283 25.371 24.5653 26.018L19.6553 37.066C19.4413 37.031 19.2243 37 19.0003 37C16.7943 37 15.0003 38.794 15.0003 41C15.0003 41.159 15.0293 41.31 15.0473 41.465L3.7583 45.855C3.2693 44.323 3.0003 42.693 3.0003 41C3.0003 32.178 10.1783 25 19.0003 25ZM17.1443 41.732C17.1433 41.729 17.1443 41.726 17.1423 41.723C17.1413 41.722 17.1403 41.721 17.1393 41.719C17.0533 41.495 17.0003 41.254 17.0003 41C17.0003 39.897 17.8973 39 19.0003 39C19.2793 39 19.5443 39.058 19.7863 39.162C19.7953 39.166 19.8013 39.175 19.8103 39.179C19.8143 39.181 19.8183 39.18 19.8223 39.181C20.5153 39.496 21.0003 40.191 21.0003 41C21.0003 42.103 20.1033 43 19.0003 43C18.1563 43 17.4373 42.473 17.1443 41.732ZM4.4973 47.713L15.7643 43.331C16.4913 44.338 17.6673 45 19.0003 45C19.1593 45 19.3103 44.971 19.4653 44.953L23.8553 56.242C22.3233 56.731 20.6933 57 19.0003 57C12.5773 57 7.0413 53.187 4.4973 47.713ZM25.7143 55.504L21.3323 44.237C22.3383 43.509 23.0003 42.334 23.0003 41C23.0003 39.735 22.3983 38.619 21.4793 37.885L26.3953 26.825C31.5023 29.501 35.0003 34.846 35.0003 41C35.0003 47.423 31.1883 52.959 25.7143 55.504ZM43.0003 29C36.3833 29 31.0003 23.617 31.0003 17C31.0003 10.383 36.3843 5 43.0003 5C49.6163 5 55.0003 10.383 55.0003 17C55.0003 23.617 49.6173 29 43.0003 29Z" fill="#DC2E32"/>
<path d="M43 13C40.794 13 39 14.794 39 17C39 19.206 40.794 21 43 21C45.206 21 47 19.206 47 17C47 14.794 45.206 13 43 13ZM43 19C41.897 19 41 18.103 41 17C41 15.897 41.897 15 43 15C44.103 15 45 15.897 45 17C45 18.103 44.103 19 43 19Z" fill="#DC2E32"/>
</svg>
