<svg width="32" height="32" viewBox="0 0 32 32" fill="none" xmlns="http://www.w3.org/2000/svg">
<rect x="0.25" y="0.25" width="31.5" height="31.5" rx="15.75" stroke="white" stroke-width="0.5"/>
<path d="M19.3849 9.0027L17.6991 9C15.8051 9 14.5812 10.2557 14.5812 12.1993V13.6744H12.8862C12.7397 13.6744 12.6211 13.7932 12.6211 13.9396V16.0769C12.6211 16.2233 12.7398 16.342 12.8862 16.342H14.5812V21.7349C14.5812 21.8814 14.6998 22 14.8463 22H17.0578C17.2042 22 17.3228 21.8813 17.3228 21.7349V16.342H19.3047C19.4512 16.342 19.5698 16.2233 19.5698 16.0769L19.5706 13.9396C19.5706 13.8693 19.5426 13.802 19.4929 13.7522C19.4433 13.7024 19.3757 13.6744 19.3054 13.6744H17.3228V12.424C17.3228 11.8229 17.4661 11.5178 18.249 11.5178L19.3846 11.5174C19.5309 11.5174 19.6496 11.3987 19.6496 11.2523V9.26778C19.6496 9.12158 19.5311 9.00298 19.3849 9.0027Z" fill="white"/>
</svg>
