<svg width="32" height="32" viewBox="0 0 32 32" fill="none" xmlns="http://www.w3.org/2000/svg">
<rect x="0.25" y="0.25" width="31.5" height="31.5" rx="15.75" stroke="white" stroke-width="0.5"/>
<path d="M19.481 9H13.519C11.5786 9 10 10.5786 10 12.519V18.4811C10 20.4214 11.5786 22 13.519 22H19.4811C21.4214 22 23 20.4214 23 18.4811V12.519C23 10.5786 21.4214 9 19.481 9V9ZM22.2379 18.4811C22.2379 20.0012 21.0012 21.2379 19.481 21.2379H13.519C11.9988 21.2379 10.7621 20.0012 10.7621 18.4811V12.519C10.7621 10.9988 11.9988 9.76212 13.519 9.76212H19.4811C21.0012 9.76212 22.2379 10.9988 22.2379 12.519V18.4811Z" fill="white"/>
<path d="M16.4999 11.9454C14.5399 11.9454 12.9453 13.54 12.9453 15.5C12.9453 17.4601 14.5399 19.0546 16.4999 19.0546C18.4599 19.0546 20.0545 17.4601 20.0545 15.5C20.0545 13.54 18.4599 11.9454 16.4999 11.9454V11.9454ZM16.4999 18.2925C14.9602 18.2925 13.7074 17.0398 13.7074 15.5C13.7074 13.9603 14.9602 12.7076 16.4999 12.7076C18.0397 12.7076 19.2924 13.9603 19.2924 15.5C19.2924 17.0398 18.0397 18.2925 16.4999 18.2925V18.2925Z" fill="white"/>
<path d="M20.1402 10.6831C19.561 10.6831 19.0898 11.1543 19.0898 11.7334C19.0898 12.3127 19.561 12.7839 20.1402 12.7839C20.7194 12.7839 21.1906 12.3127 21.1906 11.7334C21.1906 11.1542 20.7194 10.6831 20.1402 10.6831ZM20.1402 12.0217C19.9813 12.0217 19.852 11.8923 19.852 11.7334C19.852 11.5745 19.9813 11.4452 20.1402 11.4452C20.2992 11.4452 20.4285 11.5745 20.4285 11.7334C20.4285 11.8923 20.2992 12.0217 20.1402 12.0217Z" fill="white"/>
</svg>
