<svg width="32" height="32" viewBox="0 0 32 32" fill="none" xmlns="http://www.w3.org/2000/svg">
<rect x="0.25" y="0.25" width="31.5" height="31.5" rx="15.75" stroke="white" stroke-width="0.5"/>
<path d="M21 16.8585V20.5556H18.8567V17.1061C18.8567 16.2396 18.5467 15.6482 17.7709 15.6482C17.1786 15.6482 16.8262 16.0468 16.6711 16.4323C16.6146 16.5701 16.6 16.7619 16.6 16.9549V20.5556H14.456C14.456 20.5556 14.4849 14.7133 14.456 14.108H16.5998V15.022C16.5955 15.0288 16.5898 15.0362 16.5857 15.0428H16.5998V15.022C16.8847 14.5833 17.3933 13.9566 18.5319 13.9566C19.9425 13.9565 21 14.8781 21 16.8585ZM12.2132 11C11.4798 11 11 11.4811 11 12.1138C11 12.7326 11.4659 13.2283 12.1848 13.2283H12.1991C12.9468 13.2283 13.4118 12.7327 13.4118 12.1138C13.3977 11.4811 12.9468 11 12.2132 11ZM11.1273 20.5556H13.2706V14.108H11.1273V20.5556Z" fill="white"/>
</svg>
