<svg width="98" height="61" viewBox="0 0 98 61" fill="none" xmlns="http://www.w3.org/2000/svg">
<g filter="url(#filter0_d)">
<path fill-rule="evenodd" clip-rule="evenodd" d="M24.1219 25.2387H28.2611C30.7148 16.8036 38.2797 10.6394 47.3995 10.1949C49.4336 10.1224 50.1964 10.9921 49.7968 12.9488C49.7478 13.2256 49.6769 13.495 49.607 13.7604C49.5213 14.0858 49.4373 14.4051 49.3972 14.7244C49.2156 16.355 48.3075 16.8623 46.7456 17.0797C41.3947 17.776 37.5642 20.5049 35.4491 25.2387H38.4779C40.4048 22.0046 43.9111 19.8086 47.9443 19.7612C52.1825 19.6883 55.8816 21.8966 57.8699 25.2387H61.055C60.0599 22.9268 58.4301 21.0004 56.1897 19.5438C54.7004 18.5654 54.4825 17.5508 54.8094 15.9202C55.7847 11.0193 57.4426 12.1749 60.0688 14.0054L60.1126 14.0359C64.3476 17.0378 67.0012 20.9138 68.2207 25.2387H72.4907C72.6409 25.0828 72.8176 24.9394 72.9954 24.7952C73.4381 24.436 73.8874 24.0715 73.9518 23.4935C73.5633 23.2582 73.1005 23.1921 72.6486 23.1276C71.9176 23.0231 71.2149 22.9227 70.9006 22.1166C70.5873 21.3455 71.0188 20.8141 71.4628 20.2674C71.7909 19.8635 72.1257 19.4512 72.172 18.9278C71.7339 18.7304 71.2464 18.7524 70.7672 18.7741C70.0145 18.808 69.2821 18.8411 68.7939 18.0219C68.4096 17.3702 68.7063 16.8199 69.0119 16.253C69.284 15.7482 69.5633 15.2302 69.3751 14.6157C68.9876 14.664 68.6325 14.7123 68.2774 14.7606C68.0998 14.7848 67.9222 14.8089 67.7405 14.8331C66.0333 15.0505 65.5248 14.4345 65.9244 12.7676C65.9615 12.6378 66.0202 12.5008 66.0795 12.3622C66.2519 11.9592 66.4303 11.5423 66.106 11.2457C65.7132 10.88 65.3204 11.0981 64.9276 11.3162C64.7755 11.4006 64.6235 11.4851 64.4714 11.5356C62.8369 12.0429 62.2194 11.5719 62.2557 9.86876C62.2557 9.68758 62.2739 9.5064 62.292 9.32522C62.3102 9.14404 62.3283 8.96286 62.3283 8.78168C62.3283 8.02072 62.0014 8.05695 61.4203 8.31061C58.5204 9.57623 58.5144 9.54278 57.9368 6.33769L57.9332 6.31762C57.9332 6.20166 57.8402 6.08571 57.7472 5.96975C57.724 5.94076 57.7008 5.91177 57.679 5.88279C57.2201 6.02584 56.8801 6.37785 56.545 6.72478C56.0313 7.25665 55.5291 7.77658 54.6278 7.51341C53.8694 7.2745 53.7251 6.63085 53.5803 5.98515C53.4616 5.45563 53.3425 4.92473 52.8843 4.61452C52.4637 4.84598 52.1879 5.25071 51.9182 5.64655C51.5123 6.24222 51.1201 6.81776 50.269 6.75245C49.4207 6.69053 49.1499 6.06425 48.8725 5.42279C48.6629 4.93813 48.4496 4.44481 47.9806 4.17969C47.5575 4.46615 47.3418 4.9408 47.1296 5.40789C46.8317 6.06342 46.5407 6.70405 45.6923 6.78869C44.9259 6.8475 44.5529 6.32306 44.1649 5.77758C43.8356 5.31472 43.4956 4.8367 42.8954 4.68699C42.8288 4.87304 42.7622 5.05421 42.6973 5.23051C42.5854 5.53494 42.4789 5.82484 42.3868 6.1002C41.733 7.98448 41.1155 8.16566 39.5536 6.8974C39.4459 6.80949 39.3435 6.69262 39.2399 6.57446C38.9593 6.25429 38.6705 5.92469 38.246 6.13644C37.8362 6.32723 37.8579 6.78455 37.8784 7.21539C37.8851 7.35734 37.8917 7.4964 37.8827 7.62212C37.7011 9.36145 36.902 9.76005 35.3401 8.89038C35.213 8.81791 35.0859 8.73638 34.9587 8.65485C34.8316 8.57332 34.7045 8.49179 34.5773 8.41931C33.8509 8.02072 33.6692 8.31061 33.6692 9.07157C33.6692 12.2603 33.6329 12.2603 30.5818 11.282C30.4001 11.2095 30.1459 11.2095 29.9279 11.2095C29.8019 11.7126 29.9384 12.1284 30.0701 12.5297C30.1281 12.7064 30.1852 12.8803 30.2185 13.0575C30.5454 14.5795 29.9279 15.2317 28.4024 15.0143C28.2571 14.9962 28.1118 14.9599 27.9665 14.9237C27.8212 14.8875 27.6759 14.8512 27.5306 14.8331C26.7315 14.7244 26.4046 14.8331 26.7678 15.7752C27.8938 18.6379 27.8938 18.6741 24.988 18.8916C23.9346 18.964 23.8619 19.2177 24.4068 20.0511C25.9978 22.4679 25.969 22.4789 23.2455 23.5156L23.2081 23.5298C23.0454 23.5839 22.9231 23.7189 22.796 23.8592C22.7529 23.9068 22.7093 23.955 22.6633 24.0009C22.6633 24.0733 22.6633 24.1458 22.627 24.2183V24.2545C22.6582 24.2653 22.6894 24.2761 22.7207 24.2869C23.3153 24.4919 23.9085 24.6965 24.1219 25.2387ZM71.7767 39.4759H66.7797C66.9277 40.2396 66.3982 41.2886 65.2705 42.8436C61.1297 48.5689 55.0274 51.7215 47.3631 51.7215C43.0407 51.6852 38.6092 49.9822 34.7226 46.8296C33.0154 45.4164 33.1244 44.2931 34.9406 43.1335C35.1101 43.0248 35.2836 42.9201 35.4572 42.8154C35.8043 42.6061 36.1513 42.3967 36.4661 42.1552C37.5922 41.2855 38.5366 41.358 39.7352 42.1914C46.3843 46.845 54.468 45.674 59.35 39.4759H55.5609C53.5957 41.1718 51.0258 42.1914 48.1986 42.1914C45.3792 42.2079 42.7946 41.1821 40.8112 39.4759H25.7637C26.1539 39.8705 25.9986 40.4654 25.5598 41.1701C25.5629 41.1602 25.566 41.1504 25.5691 41.1405L25.5328 41.213C25.5419 41.1987 25.5509 41.1843 25.5598 41.1701C25.4412 41.547 25.3332 41.9347 25.2238 42.3271C25.136 42.6422 25.0473 42.9603 24.9516 43.2785C25.2059 43.3147 25.4602 43.3147 25.7144 43.3147C26.3182 42.9958 26.9219 42.9887 27.4238 43.4966C27.4231 43.4964 27.4223 43.4961 27.4216 43.4959L27.458 43.5321C27.4466 43.52 27.4352 43.5082 27.4238 43.4966C27.4491 43.5049 27.4801 43.5132 27.5127 43.522C27.6214 43.5513 27.7485 43.5855 27.7485 43.6408C27.787 43.8874 27.8138 44.1415 27.8406 44.3948C27.9907 45.8169 28.1385 47.2172 30.3275 47.1557C30.5091 49.4748 32.1437 50.272 34.1414 50.6706C34.2001 50.6999 34.2351 50.8945 34.2655 51.0638C34.2727 51.1041 34.2797 51.1431 34.2867 51.1779C34.2867 51.3772 34.2777 51.5675 34.2686 51.7577C34.2595 51.948 34.2504 52.1382 34.2504 52.3375C34.65 53.026 35.1948 53.0985 35.9213 52.7361C37.3016 52.0476 38.3186 52.5187 38.6455 54.0044C38.8998 55.0552 39.1904 55.3813 40.1348 54.5841C41.1882 53.6782 42.1689 53.9319 42.859 55.0552C43.4039 55.9249 44.0214 56.2148 44.9658 55.7075L45.2201 55.4538C45.9829 54.1855 46.673 54.874 47.2542 55.5988C47.3023 55.6615 47.3496 55.7247 47.3968 55.7876C47.8127 56.342 48.2148 56.8781 48.9977 56.9757C49.5062 54.7653 50.5959 54.258 52.1578 55.6712C53.2717 56.6858 53.5785 56.0577 53.8852 55.4296C54.0386 55.1156 54.1919 54.8016 54.4462 54.6928C54.5552 54.6566 54.6278 54.6204 54.6641 54.5117C55.1363 53.8957 55.6449 54.0406 56.1171 54.4754C56.1715 54.5117 56.226 54.557 56.2805 54.6023C56.335 54.6476 56.3895 54.6929 56.444 54.7291L56.4803 54.7653L56.7709 55.0552C57.0251 55.0552 57.2885 55.0643 57.5518 55.0733C57.8152 55.0824 58.0785 55.0914 58.3328 55.0914C58.3509 54.8921 58.3691 54.6838 58.3873 54.4754C58.4054 54.2671 58.4236 54.0587 58.4417 53.8594C58.3691 53.4608 58.5144 53.1347 58.8776 52.9173L59.0229 52.8086C59.4951 52.0476 60.1126 52.265 60.7301 52.5187C61.3476 52.7723 61.9651 52.9535 62.6189 52.881C62.5826 52.5549 62.5463 52.1926 62.51 51.8302C61.5656 50.4532 62.8732 49.7647 63.5633 49.9822C65.686 50.5923 65.8131 49.3539 65.9565 47.9571L65.9607 47.9167C66.0333 47.6993 66.1423 47.4819 66.2513 47.2644C66.5782 46.5035 67.232 46.5397 67.9221 46.6484C68.7939 46.7934 69.0845 46.2861 69.1208 45.5251C68.6486 43.7133 68.6486 43.7133 72.3173 42.9523C71.3966 40.8629 71.0593 40.0974 71.7767 39.4759Z" fill="white"/>
</g>
<g filter="url(#filter1_d)">
<path d="M6.29613 35.1388C6.46946 35.1388 6.61613 35.0788 6.73613 34.9588C6.86279 34.8321 6.92946 34.6821 6.93613 34.5088V28.9088C6.93613 28.7488 6.87279 28.6154 6.74613 28.5088C6.61946 28.3954 6.46946 28.3388 6.29613 28.3388H6.17613L6.16613 28.2388H8.19613C8.40279 28.2388 8.62613 28.2188 8.86613 28.1788C9.11279 28.1388 9.28613 28.0988 9.38613 28.0588V29.3188H9.28613V29.1388C9.28613 28.9788 9.22946 28.8421 9.11613 28.7288C9.00946 28.6154 8.87946 28.5554 8.72613 28.5488H7.58613V31.6388H9.48613C9.61946 31.6321 9.73279 31.5821 9.82613 31.4888C9.91946 31.3954 9.96613 31.2788 9.96613 31.1388V30.9988H10.0661V32.5788H9.96613V32.4288C9.96613 32.2954 9.91946 32.1821 9.82613 32.0888C9.73946 31.9954 9.62946 31.9454 9.49613 31.9388H7.58613V34.9288H9.71613C10.2095 34.9288 10.5861 34.8188 10.8461 34.5988C11.1061 34.3788 11.3228 34.0521 11.4961 33.6188H11.5961L11.0161 35.2388H6.16613V35.1388H6.29613ZM15.8103 35.3788C14.757 35.3721 13.897 35.0354 13.2303 34.3688C12.5703 33.7021 12.2403 32.8254 12.2403 31.7388C12.2403 30.6454 12.5703 29.7654 13.2303 29.0988C13.897 28.4321 14.777 28.0988 15.8703 28.0988C16.7637 28.0988 17.5537 28.3254 18.2403 28.7788L18.4403 30.1888H18.3503C18.2037 29.6154 17.907 29.1754 17.4603 28.8688C17.0137 28.5554 16.4837 28.3988 15.8703 28.3988C14.997 28.3988 14.297 28.7021 13.7703 29.3088C13.2503 29.9154 12.9903 30.7188 12.9903 31.7188C12.9903 32.7188 13.247 33.5254 13.7603 34.1388C14.2803 34.7454 14.9637 35.0588 15.8103 35.0788C16.557 35.0788 17.1803 34.8754 17.6803 34.4688C18.2203 34.0288 18.547 33.3121 18.6603 32.3188H18.7403L18.6203 33.8888C18.0137 34.8821 17.077 35.3788 15.8103 35.3788ZM21.898 35.1388H22.028V35.2388H19.838V35.1388H19.968C20.1413 35.1388 20.288 35.0788 20.408 34.9588C20.5347 34.8321 20.6013 34.6821 20.608 34.5088V28.9588C20.6013 28.7854 20.5347 28.6388 20.408 28.5188C20.288 28.3988 20.1413 28.3388 19.968 28.3388H19.838V28.2388H22.028V28.3388H21.898C21.7247 28.3388 21.5747 28.3988 21.448 28.5188C21.328 28.6388 21.2647 28.7854 21.258 28.9588V34.5088C21.258 34.6821 21.3213 34.8321 21.448 34.9588C21.5747 35.0788 21.7247 35.1388 21.898 35.1388ZM25.918 35.2388H25.488C24.808 35.2388 24.308 35.0488 23.988 34.6688L21.578 31.7588L23.938 28.7988C23.9913 28.7321 24.018 28.6721 24.018 28.6188C24.018 28.5654 24.008 28.5188 23.988 28.4788C23.9347 28.3788 23.838 28.3288 23.698 28.3288H23.598V28.2388H25.708V28.3288H25.668C25.228 28.3288 24.868 28.4854 24.588 28.7988L22.238 31.5188L24.968 34.7288C25.2347 34.9954 25.5513 35.1321 25.918 35.1388V35.2388ZM31.2803 35.1388C31.4536 35.1388 31.6003 35.0788 31.7203 34.9588C31.8469 34.8321 31.9136 34.6854 31.9203 34.5188V31.9288H27.8303V34.5188C27.8303 34.6921 27.8936 34.8388 28.0203 34.9588C28.1469 35.0788 28.2969 35.1388 28.4703 35.1388H28.6003V35.2388H26.4103V35.1388H26.5403C26.7136 35.1388 26.8603 35.0788 26.9803 34.9588C27.1069 34.8388 27.1736 34.6921 27.1803 34.5188V28.9588C27.1736 28.7854 27.1069 28.6388 26.9803 28.5188C26.8603 28.3988 26.7136 28.3388 26.5403 28.3388H26.4103V28.2388H28.6003V28.3388H28.4703C28.2969 28.3388 28.1469 28.3988 28.0203 28.5188C27.9003 28.6388 27.8369 28.7854 27.8303 28.9588V31.6288H31.9203V28.9588C31.9136 28.7188 31.8069 28.5388 31.6003 28.4188C31.5003 28.3654 31.3936 28.3388 31.2803 28.3388H31.1503V28.2388H33.3403V28.3388H33.2103C33.0369 28.3388 32.8869 28.4021 32.7603 28.5288C32.6403 28.6488 32.5769 28.7954 32.5703 28.9688V34.5188C32.5769 34.6921 32.6403 34.8388 32.7603 34.9588C32.8869 35.0788 33.0369 35.1388 33.2103 35.1388H33.3403V35.2388H31.1503V35.1388H31.2803ZM41.105 35.1388H41.185V35.2388H38.935V35.1388H39.025C39.165 35.1388 39.2684 35.0954 39.335 35.0088C39.4084 34.9154 39.445 34.8288 39.445 34.7488C39.445 34.6688 39.4317 34.5888 39.405 34.5088L38.765 32.8088H36.065L35.395 34.5188C35.3684 34.5988 35.355 34.6788 35.355 34.7588C35.355 34.8321 35.3884 34.9154 35.455 35.0088C35.5284 35.0954 35.635 35.1388 35.775 35.1388H35.865V35.2388H33.855V35.1388H33.945C34.1117 35.1388 34.275 35.0854 34.435 34.9788C34.595 34.8721 34.725 34.7154 34.825 34.5088L37.085 29.1288C37.3317 28.5888 37.455 28.2454 37.455 28.0988H37.545L40.225 34.5088C40.3184 34.7154 40.445 34.8721 40.605 34.9788C40.765 35.0854 40.9317 35.1388 41.105 35.1388ZM36.185 32.5088H38.645L37.445 29.2988L36.185 32.5088ZM43.7242 28.5488H43.0842V34.5088C43.0842 34.6821 43.1442 34.8321 43.2642 34.9588C43.3908 35.0788 43.5442 35.1388 43.7242 35.1388H43.8442L43.8542 35.2388H41.6642V35.1388H41.7942C41.9675 35.1388 42.1142 35.0788 42.2342 34.9588C42.3608 34.8388 42.4275 34.6921 42.4342 34.5188V28.9688C42.4275 28.7954 42.3608 28.6488 42.2342 28.5288C42.1142 28.4021 41.9675 28.3388 41.7942 28.3388H41.6642V28.2388H44.3642C44.9708 28.2388 45.4475 28.4088 45.7942 28.7488C46.1408 29.0821 46.3142 29.5188 46.3142 30.0588C46.3142 30.5921 46.1475 31.0554 45.8142 31.4488C45.4875 31.8354 45.0875 32.0288 44.6142 32.0288C44.7142 32.0754 44.8308 32.1688 44.9642 32.3088C45.1042 32.4421 45.2275 32.5821 45.3342 32.7288C45.9075 33.5488 46.2808 34.0554 46.4542 34.2488C46.6275 34.4354 46.7508 34.5654 46.8242 34.6388C46.8975 34.7054 46.9775 34.7721 47.0642 34.8388C47.1508 34.9054 47.2375 34.9588 47.3242 34.9988C47.5175 35.0921 47.7242 35.1388 47.9442 35.1388V35.2388H47.3942C47.1075 35.2388 46.8408 35.1888 46.5942 35.0888C46.3475 34.9821 46.1608 34.8754 46.0342 34.7688C45.9142 34.6554 45.8075 34.5488 45.7142 34.4488C45.6275 34.3421 45.3808 33.9954 44.9742 33.4088C44.5675 32.8221 44.3308 32.4888 44.2642 32.4088C44.1975 32.3221 44.1275 32.2388 44.0542 32.1588C43.8408 31.9321 43.6275 31.8188 43.4142 31.8188V31.7188C43.4675 31.7254 43.5375 31.7288 43.6242 31.7288C43.7108 31.7288 43.8175 31.7254 43.9442 31.7188C44.7708 31.6988 45.2908 31.3521 45.5042 30.6788C45.5442 30.5454 45.5642 30.4221 45.5642 30.3088C45.5642 30.1888 45.5642 30.1121 45.5642 30.0788C45.5508 29.6321 45.4342 29.2721 45.2142 28.9988C44.9942 28.7254 44.6975 28.5788 44.3242 28.5588C44.1642 28.5521 43.9642 28.5488 43.7242 28.5488ZM51.519 28.2388C52.5857 28.2388 53.449 28.5621 54.109 29.2088C54.7757 29.8488 55.109 30.6921 55.109 31.7388C55.109 32.7854 54.7757 33.6321 54.109 34.2788C53.449 34.9188 52.5857 35.2388 51.519 35.2388H48.129V35.1388H48.259C48.4324 35.1388 48.579 35.0788 48.699 34.9588C48.8257 34.8321 48.8924 34.6821 48.899 34.5088V28.9088C48.899 28.7488 48.8324 28.6154 48.699 28.5088C48.5724 28.3954 48.4257 28.3388 48.259 28.3388H48.139L48.129 28.2388H51.519ZM49.549 28.5388V34.9388H51.519C52.079 34.9388 52.5724 34.8054 52.999 34.5388C53.4324 34.2721 53.7657 33.8988 53.999 33.4188C54.239 32.9321 54.359 32.3721 54.359 31.7388C54.359 30.7788 54.0957 30.0054 53.569 29.4188C53.049 28.8321 52.3657 28.5388 51.519 28.5388H49.549ZM69.0954 36.8588C69.1354 36.8588 69.1754 36.8588 69.2154 36.8588V36.9588C69.0288 36.9854 68.8188 36.9988 68.5854 36.9988C68.3588 36.9988 68.0754 36.9488 67.7354 36.8488C67.4021 36.7488 67.0988 36.5621 66.8254 36.2888C66.2654 35.7288 65.9254 35.0021 65.8054 34.1088L65.1954 29.6588L63.1154 34.3588C62.9288 34.7654 62.8154 35.1054 62.7754 35.3788H62.6754L60.0854 29.7488L59.6454 34.7188C59.6321 34.8321 59.6654 34.9321 59.7454 35.0188C59.8321 35.1054 59.9254 35.1488 60.0254 35.1488H60.1854V35.2388H58.2454V35.1388H58.4054C58.5854 35.1388 58.7421 35.0854 58.8754 34.9788C59.0154 34.8654 59.1021 34.7188 59.1354 34.5388L59.7654 29.0788C59.1788 27.9254 58.4754 27.3488 57.6554 27.3488C57.5821 27.3488 57.5054 27.3521 57.4254 27.3588V27.2588C57.6054 27.2121 57.7521 27.1888 57.8654 27.1888C57.9788 27.1888 58.1021 27.1954 58.2354 27.2088C58.3688 27.2154 58.5254 27.2454 58.7054 27.2988C58.8854 27.3521 59.0554 27.4321 59.2154 27.5388C59.3754 27.6388 59.5154 27.7454 59.6354 27.8588C59.7554 27.9654 59.8688 28.0854 59.9754 28.2188C60.1554 28.4588 60.2988 28.6888 60.4054 28.9088L62.8154 34.1288L65.5054 28.0988H65.5954L66.5254 34.0188C66.6654 34.9521 66.9654 35.6588 67.4254 36.1388C67.8921 36.6188 68.4488 36.8588 69.0954 36.8588ZM74.5621 35.1388H74.6421V35.2388H72.3921V35.1388H72.4821C72.6221 35.1388 72.7254 35.0954 72.7921 35.0088C72.8654 34.9154 72.9021 34.8288 72.9021 34.7488C72.9021 34.6688 72.8887 34.5888 72.8621 34.5088L72.2221 32.8088H69.5221L68.8521 34.5188C68.8254 34.5988 68.8121 34.6788 68.8121 34.7588C68.8121 34.8321 68.8454 34.9154 68.9121 35.0088C68.9854 35.0954 69.0921 35.1388 69.2321 35.1388H69.3221V35.2388H67.3121V35.1388H67.4021C67.5687 35.1388 67.7321 35.0854 67.8921 34.9788C68.0521 34.8721 68.1821 34.7154 68.2821 34.5088L70.5421 29.1288C70.7887 28.5888 70.9121 28.2454 70.9121 28.0988H71.0021L73.6821 34.5088C73.7754 34.7154 73.9021 34.8721 74.0621 34.9788C74.2221 35.0854 74.3887 35.1388 74.5621 35.1388ZM69.6421 32.5088H72.1021L70.9021 29.2988L69.6421 32.5088ZM77.1812 28.5488H76.5412V34.5088C76.5412 34.6821 76.6012 34.8321 76.7212 34.9588C76.8479 35.0788 77.0012 35.1388 77.1812 35.1388H77.3012L77.3112 35.2388H75.1212V35.1388H75.2512C75.4245 35.1388 75.5712 35.0788 75.6912 34.9588C75.8179 34.8388 75.8845 34.6921 75.8912 34.5188V28.9688C75.8845 28.7954 75.8179 28.6488 75.6912 28.5288C75.5712 28.4021 75.4245 28.3388 75.2512 28.3388H75.1212V28.2388H77.8212C78.4279 28.2388 78.9045 28.4088 79.2512 28.7488C79.5979 29.0821 79.7712 29.5188 79.7712 30.0588C79.7712 30.5921 79.6045 31.0554 79.2712 31.4488C78.9445 31.8354 78.5445 32.0288 78.0712 32.0288C78.1712 32.0754 78.2879 32.1688 78.4212 32.3088C78.5612 32.4421 78.6845 32.5821 78.7912 32.7288C79.3645 33.5488 79.7379 34.0554 79.9112 34.2488C80.0845 34.4354 80.2079 34.5654 80.2812 34.6388C80.3545 34.7054 80.4345 34.7721 80.5212 34.8388C80.6079 34.9054 80.6945 34.9588 80.7812 34.9988C80.9745 35.0921 81.1812 35.1388 81.4012 35.1388V35.2388H80.8512C80.5645 35.2388 80.2979 35.1888 80.0512 35.0888C79.8045 34.9821 79.6179 34.8754 79.4912 34.7688C79.3712 34.6554 79.2645 34.5488 79.1712 34.4488C79.0845 34.3421 78.8379 33.9954 78.4312 33.4088C78.0245 32.8221 77.7879 32.4888 77.7212 32.4088C77.6545 32.3221 77.5845 32.2388 77.5112 32.1588C77.2979 31.9321 77.0845 31.8188 76.8712 31.8188V31.7188C76.9245 31.7254 76.9945 31.7288 77.0812 31.7288C77.1679 31.7288 77.2745 31.7254 77.4012 31.7188C78.2279 31.6988 78.7479 31.3521 78.9612 30.6788C79.0012 30.5454 79.0212 30.4221 79.0212 30.3088C79.0212 30.1888 79.0212 30.1121 79.0212 30.0788C79.0079 29.6321 78.8912 29.2721 78.6712 28.9988C78.4512 28.7254 78.1545 28.5788 77.7812 28.5588C77.6212 28.5521 77.4212 28.5488 77.1812 28.5488ZM83.6461 35.1388H83.7761V35.2388H81.5861V35.1388H81.7161C81.8894 35.1388 82.0361 35.0788 82.1561 34.9588C82.2827 34.8321 82.3494 34.6821 82.3561 34.5088V28.9588C82.3494 28.7854 82.2827 28.6388 82.1561 28.5188C82.0361 28.3988 81.8894 28.3388 81.7161 28.3388H81.5861V28.2388H83.7761V28.3388H83.6461C83.4727 28.3388 83.3227 28.3988 83.1961 28.5188C83.0761 28.6388 83.0127 28.7854 83.0061 28.9588V34.5088C83.0061 34.6821 83.0694 34.8321 83.1961 34.9588C83.3227 35.0788 83.4727 35.1388 83.6461 35.1388ZM87.6661 35.2388H87.2361C86.5561 35.2388 86.0561 35.0488 85.7361 34.6688L83.3261 31.7588L85.6861 28.7988C85.7394 28.7321 85.7661 28.6721 85.7661 28.6188C85.7661 28.5654 85.7561 28.5188 85.7361 28.4788C85.6827 28.3788 85.5861 28.3288 85.4461 28.3288H85.3461V28.2388H87.4561V28.3288H87.4161C86.9761 28.3288 86.6161 28.4854 86.3361 28.7988L83.9861 31.5188L86.7161 34.7288C86.9827 34.9954 87.2994 35.1321 87.6661 35.1388V35.2388ZM88.1683 34.8288C88.1483 34.7354 88.1383 34.5554 88.1383 34.2888C88.1383 34.0221 88.1883 33.7388 88.2883 33.4388H88.3783C88.3717 33.5121 88.3683 33.5854 88.3683 33.6588C88.3683 34.0654 88.4917 34.4054 88.7383 34.6788C88.985 34.9454 89.3117 35.0788 89.7183 35.0788C90.1383 35.0788 90.4817 34.9521 90.7483 34.6988C91.0217 34.4454 91.1583 34.1288 91.1583 33.7488C91.1583 33.3621 91.0283 33.0488 90.7683 32.8088L88.8483 31.0288C88.4883 30.6954 88.3083 30.2921 88.3083 29.8188C88.3083 29.3454 88.465 28.9421 88.7783 28.6088C89.0983 28.2688 89.5283 28.0988 90.0683 28.0988C90.3217 28.0988 90.6083 28.1321 90.9283 28.1988H91.3183V29.4288H91.2283C91.2283 29.1154 91.1183 28.8654 90.8983 28.6788C90.685 28.4921 90.4083 28.3988 90.0683 28.3988C89.7283 28.3988 89.4417 28.5121 89.2083 28.7388C88.9817 28.9654 88.8683 29.2488 88.8683 29.5888C88.8683 29.9288 89.0017 30.2221 89.2683 30.4688L91.2383 32.2888C91.5717 32.5954 91.7383 33.0154 91.7383 33.5488C91.7383 34.0821 91.5683 34.5221 91.2283 34.8688C90.8883 35.2088 90.435 35.3788 89.8683 35.3788C89.575 35.3788 89.2617 35.3321 88.9283 35.2388C88.6017 35.1521 88.3483 35.0154 88.1683 34.8288Z" fill="white"/>
</g>
<defs>
<filter id="filter0_d" x="18.627" y="0.179688" width="59.3248" height="60.796" filterUnits="userSpaceOnUse" color-interpolation-filters="sRGB">
<feFlood flood-opacity="0" result="BackgroundImageFix"/>
<feColorMatrix in="SourceAlpha" type="matrix" values="0 0 0 0 0 0 0 0 0 0 0 0 0 0 0 0 0 0 127 0"/>
<feOffset/>
<feGaussianBlur stdDeviation="2"/>
<feColorMatrix type="matrix" values="0 0 0 0 0 0 0 0 0 0 0 0 0 0 0 0 0 0 0.15 0"/>
<feBlend mode="normal" in2="BackgroundImageFix" result="effect1_dropShadow"/>
<feBlend mode="normal" in="SourceGraphic" in2="effect1_dropShadow" result="shape"/>
</filter>
<filter id="filter1_d" x="2.16602" y="23.1887" width="93.5722" height="17.81" filterUnits="userSpaceOnUse" color-interpolation-filters="sRGB">
<feFlood flood-opacity="0" result="BackgroundImageFix"/>
<feColorMatrix in="SourceAlpha" type="matrix" values="0 0 0 0 0 0 0 0 0 0 0 0 0 0 0 0 0 0 127 0"/>
<feOffset/>
<feGaussianBlur stdDeviation="2"/>
<feColorMatrix type="matrix" values="0 0 0 0 0 0 0 0 0 0 0 0 0 0 0 0 0 0 0.15 0"/>
<feBlend mode="normal" in2="BackgroundImageFix" result="effect1_dropShadow"/>
<feBlend mode="normal" in="SourceGraphic" in2="effect1_dropShadow" result="shape"/>
</filter>
</defs>
</svg>
