<svg width="24" height="34" viewBox="0 0 24 34" fill="none" xmlns="http://www.w3.org/2000/svg">
<path d="M22.8691 8.46227C22.7481 8.00869 22.5023 7.52538 22.3205 7.10224C20.1449 1.87378 15.3913 0 11.553 0C6.41475 0 0.75555 3.44543 0 10.5473V11.9982C0 12.0588 0.0208689 12.6027 0.0505123 12.8748C0.474057 16.2593 3.14473 19.8564 5.13929 23.241C7.28516 26.8672 9.51181 30.4343 11.7178 34C13.0781 31.6731 14.4335 29.3156 15.7628 27.049C16.125 26.3838 16.5456 25.719 16.9083 25.0841C17.15 24.6613 17.6118 24.2386 17.8228 23.8452C19.9686 19.9166 23.4225 15.9575 23.4225 12.0587V10.457C23.4225 10.0343 22.8986 8.55342 22.8691 8.46227ZM11.6471 15.746C10.1367 15.746 8.48346 14.9908 7.66744 12.9051C7.54586 12.5731 7.55566 11.9077 7.55566 11.8468V10.9099C7.55566 8.25098 9.8133 7.04184 11.7774 7.04184C14.1953 7.04184 16.0654 8.97633 16.0654 11.3943C16.0654 13.8122 14.065 15.746 11.6471 15.746Z" fill="#DC2E32"/>
</svg>
