<svg width="129" height="127" viewBox="0 0 129 127" fill="none" xmlns="http://www.w3.org/2000/svg">
<g filter="url(#filter0_d)">
<path d="M11.2508 55.2129C11.2508 54.646 11.1698 53.998 11.1698 53.4311C11.4939 50.8395 9.54926 50.2726 7.68565 49.6247V49.5437C7.76668 49.3817 7.76668 49.2197 7.76668 49.0578C8.17181 48.6528 8.49592 48.1669 8.98207 48.0049C15.1401 45.6562 15.2211 45.6562 11.6559 40.23C10.4405 38.3673 10.6026 37.8004 12.9524 37.6384C19.4345 37.1525 19.4345 37.0715 16.9227 30.6734C16.1124 28.5677 16.8416 28.3247 18.6242 28.5677C19.2724 28.6487 19.9206 28.8917 20.5688 28.9726C23.9719 29.4586 25.3494 28.0008 24.6202 24.5993C24.3771 23.3035 23.5668 22.0886 23.9719 20.4689C24.4581 20.4689 25.0253 20.4689 25.4304 20.6309C32.2366 22.8175 32.3177 22.8175 32.3177 15.6906C32.3177 13.9898 32.7228 13.3419 34.3433 14.2328C34.9105 14.5567 35.4777 14.9617 36.0449 15.2856C39.529 17.2293 41.3116 16.3385 41.7167 12.451C41.7977 11.3172 41.3116 9.69743 42.527 9.13051C43.8234 8.4826 44.5526 10.1024 45.4439 10.8313C48.9281 13.6659 50.3055 13.2609 51.764 9.04952C52.0881 8.07766 52.4932 7.02481 52.8983 5.89097C55.8153 6.61987 55.9773 10.8313 59.1374 10.5883C62.3784 10.2643 61.9733 6.29592 64.242 4.75714C66.6728 6.13394 66.0246 10.2643 69.3467 10.5073C72.5067 10.7503 72.8308 7.02481 75.1806 5.729C77.4493 7.26778 75.9908 11.2362 79.0698 12.2081C82.3919 13.1799 83.2832 9.37347 85.8761 8.56359C86.1191 8.88754 86.4432 9.2115 86.4432 9.53545C87.7397 16.7434 87.7397 16.8244 94.2218 13.9898C95.5182 13.4229 96.2474 13.3419 96.2474 15.0427C96.2474 15.8525 96.0854 16.6624 96.0854 17.4723C96.0043 21.2788 97.3818 22.3316 101.028 21.1978C102.243 20.7928 103.459 19.416 104.674 20.5499C105.646 21.4407 104.593 22.8175 104.269 23.9514C103.378 27.6768 104.512 29.0536 108.32 28.5677C109.536 28.4057 110.67 28.2438 111.967 28.0818C112.858 30.9974 109.05 32.9411 110.67 35.6947C112.453 38.6912 115.694 36.5856 118.206 37.7194C117.962 40.473 114.154 41.8498 115.37 44.8464C116.504 47.7619 119.907 46.5471 122.176 47.9239C121.852 50.8395 117.152 51.3254 118.125 54.7269C119.016 57.7235 122.824 56.9946 124.607 59.2623C124.039 59.6672 123.553 60.0722 122.986 60.3961C117.638 63.9596 117.638 64.7695 122.824 68.495C123.796 69.2239 125.741 69.7908 123.229 71.1676C116.909 74.7311 116.909 74.7311 122.095 79.9953C122.338 80.2383 122.5 80.6432 122.662 81.0482C115.289 84.0447 115.289 84.0447 118.53 91.4147C110.346 93.1154 110.346 93.1154 111.399 97.1648C111.318 98.8656 110.67 99.9994 108.725 99.6755C107.186 99.4325 105.728 99.3515 104.998 101.052C104.755 101.538 104.512 102.024 104.35 102.51C104.026 105.669 103.783 108.503 99.0023 107.126C97.4628 106.64 94.5459 108.179 96.6526 111.257C96.7336 112.067 96.8146 112.877 96.8956 113.605C95.4372 113.767 94.0597 113.362 92.6823 112.796C91.3048 112.229 89.9274 111.743 88.874 113.443L88.5499 113.686C87.7397 114.172 87.4156 114.901 87.5776 115.792C87.4966 116.683 87.4156 117.655 87.3345 118.546C86.2002 118.546 84.9848 118.465 83.8504 118.465C83.6073 118.222 83.4453 118.06 83.2022 117.817L83.1212 117.736C82.8781 117.574 82.635 117.331 82.3919 117.169C81.3386 116.197 80.2042 115.873 79.1509 117.25C79.0699 117.493 78.9078 117.574 78.6647 117.655C76.9632 118.384 77.2873 123.243 73.5601 119.842C70.0759 116.683 67.6451 117.817 66.5108 122.757C64.5661 122.514 63.6748 121.056 62.6215 119.68C61.3251 118.06 59.7856 116.521 58.084 119.356C57.922 119.518 57.6789 119.761 57.5168 119.923C55.4102 121.056 54.0327 120.408 52.8173 118.465C51.2778 115.954 49.0901 115.387 46.7403 117.412C44.6337 119.194 43.9855 118.465 43.4183 116.116C42.689 112.796 40.4203 111.743 37.3413 113.282C35.7208 114.091 34.5054 113.929 33.6141 112.391C33.6141 111.5 33.6951 110.69 33.6951 109.799C33.6141 109.394 33.5331 108.746 33.371 108.665C28.9146 107.774 25.2684 105.993 24.8632 100.809C19.1104 100.971 19.6775 96.5979 19.1104 92.9534C19.1104 92.7915 18.6242 92.7105 18.3811 92.6295L18.4622 92.7105C17.3278 91.4956 15.9503 91.4956 14.5729 92.2245C14.0057 92.2245 13.4385 92.2245 12.8713 92.1436C13.3575 90.5238 13.7626 88.904 14.2488 87.3652L14.1678 87.5272C15.7073 85.0976 15.7883 83.2348 12.3042 82.6679C10.6026 82.425 8.90105 82.101 7.11847 81.858C7.84771 78.8615 11.899 78.2946 11.2508 75.055C10.6026 71.8155 6.79436 72.6254 4.93076 70.6007C6.14615 68.252 10.1164 68.333 10.1975 65.0934C10.2785 61.6919 6.30821 61.7729 4.84973 59.6672C5.25486 58.3714 6.38923 58.3714 7.44257 58.2094C8.90105 58.2094 10.1164 57.8855 10.8457 56.5087L10.7647 56.5897C11.3318 56.3467 11.4939 55.8608 11.2508 55.2129ZM89.7653 64.3646C89.6843 50.4346 78.2596 39.3392 64.161 39.5821C50.3865 39.7441 39.367 51.1635 39.529 64.9315C39.6911 78.6995 50.9537 89.7949 64.7282 89.7139C78.7457 89.7139 89.9274 78.4565 89.7653 64.3646ZM18.3811 65.0934C18.138 67.4421 18.6242 70.3577 19.1914 73.2733C19.5965 75.217 20.1637 77.1607 20.7309 79.1044C21.2171 80.8862 22.2704 82.263 24.215 82.6679C28.6715 83.4778 35.3156 76.4318 34.3433 72.0584C33.1279 66.3083 33.0469 60.4771 35.0726 54.8889C39.448 42.4167 48.4419 35.2897 61.4871 33.589C64.9713 33.1031 66.9969 31.9692 67.4021 28.3247C67.5641 27.0289 68.0503 25.7331 68.2934 24.3563C69.1846 19.9829 67.4831 18.0392 62.9456 18.2012C38.0705 19.416 18.3811 39.7441 18.3811 65.0934ZM62.8646 111.014C79.9611 111.014 93.5736 103.968 102.811 91.1717C108.32 83.5588 107.429 81.3721 98.2731 79.4284C95.2751 78.7805 93.0064 78.7805 90.9807 81.777C80.2852 97.2458 61.3251 100.566 45.8491 89.7139C43.1752 87.8512 41.0685 87.6892 38.5567 89.6329C37.5033 90.4428 36.2879 91.0907 35.1536 91.8196C31.1023 94.4112 30.8592 96.9219 34.6674 100.08C43.3372 107.126 53.2224 110.933 62.8646 111.014ZM110.994 60.8821C109.941 47.6 103.621 35.5327 91.3048 26.786C85.3899 22.6556 81.6627 19.9829 79.475 30.9974C78.7457 34.6418 79.2319 36.9095 82.554 39.0962C89.7653 43.7935 94.1407 50.6775 95.5182 59.1813C96.6526 66.3893 95.2751 65.9033 104.431 68.09C109.455 69.2239 111.156 67.6851 110.994 60.8821Z" fill="white"/>
</g>
<defs>
<filter id="filter0_d" x="0.849731" y="0.757137" width="127.757" height="126" filterUnits="userSpaceOnUse" color-interpolation-filters="sRGB">
<feFlood flood-opacity="0" result="BackgroundImageFix"/>
<feColorMatrix in="SourceAlpha" type="matrix" values="0 0 0 0 0 0 0 0 0 0 0 0 0 0 0 0 0 0 127 0"/>
<feOffset/>
<feGaussianBlur stdDeviation="2"/>
<feColorMatrix type="matrix" values="0 0 0 0 0 0 0 0 0 0 0 0 0 0 0 0 0 0 0.15 0"/>
<feBlend mode="normal" in2="BackgroundImageFix" result="effect1_dropShadow"/>
<feBlend mode="normal" in="SourceGraphic" in2="effect1_dropShadow" result="shape"/>
</filter>
</defs>
</svg>
